<svg width="24" height="24" viewBox="0 0 24 24" fill="none" xmlns="http://www.w3.org/2000/svg">
<path d="M12 14.1095C13.1625 14.1095 14.114 13.1626 14.114 11.9954C14.114 11.536 13.964 11.1095 13.7156 10.7626C13.3312 10.2329 12.7078 9.88135 12.0047 9.88135C11.3015 9.88135 10.6781 10.2282 10.2937 10.7626C10.0453 11.1095 9.8953 11.536 9.8953 11.9954C9.89061 13.1626 10.8375 14.1095 12 14.1095Z" fill="white" fill-opacity="0.7"/>
<path d="M16.6125 9.41719V7.64531V7.38281H16.35L14.5781 7.3875L14.5875 9.42188L16.6125 9.41719Z" fill="white" fill-opacity="0.7"/>
<path d="M15.2812 11.9999C15.2812 13.8093 13.8094 15.2812 12 15.2812C10.1906 15.2812 8.71875 13.8093 8.71875 11.9999C8.71875 11.564 8.80781 11.1468 8.9625 10.7671H7.17188V15.6796C7.17188 16.3124 7.6875 16.828 8.32031 16.828H15.6797C16.3125 16.828 16.8281 16.3124 16.8281 15.6796V10.7671H15.0375C15.1969 11.1468 15.2812 11.564 15.2812 11.9999Z" fill="white" fill-opacity="0.7"/>
<path d="M12 0C5.37188 0 0 5.37188 0 12C0 18.6281 5.37188 24 12 24C18.6281 24 24 18.6281 24 12C24 5.37188 18.6281 0 12 0ZM18 10.7672V15.6797C18 16.9594 16.9594 18 15.6797 18H8.32031C7.04063 18 6 16.9594 6 15.6797V10.7672V8.31562C6 7.03594 7.04063 5.99531 8.32031 5.99531H15.6797C16.9594 5.99531 18 7.03594 18 8.31562V10.7672Z" fill="white" fill-opacity="0.7"/>
</svg>
