<svg width="24" height="24" viewBox="0 0 24 24" fill="none" xmlns="http://www.w3.org/2000/svg">
<path d="M12 0C5.37188 0 0 5.37188 0 12C0 18.6281 5.37188 24 12 24C18.6281 24 24 18.6281 24 12C24 5.37188 18.6281 0 12 0ZM16.7906 10.1344C16.7953 10.2375 16.7953 10.3453 16.7953 10.4531C16.7953 13.7109 14.3156 17.4703 9.77813 17.4703C8.38594 17.4703 7.0875 17.0625 6 16.3641C6.19219 16.3875 6.38906 16.3969 6.59063 16.3969C7.74375 16.3969 8.80781 16.0031 9.65156 15.3422C8.57344 15.3234 7.65938 14.6109 7.35 13.6312C7.5 13.6594 7.65469 13.6734 7.81406 13.6734C8.03906 13.6734 8.25938 13.6453 8.46563 13.5844C7.33594 13.3594 6.4875 12.3609 6.4875 11.1656V11.1375C6.82031 11.3203 7.2 11.4328 7.60312 11.4469C6.94219 11.0063 6.50625 10.2469 6.50625 9.39375C6.50625 8.94375 6.62812 8.51719 6.83906 8.15156C8.05781 9.64687 9.87188 10.6266 11.9203 10.7297C11.8781 10.5516 11.8547 10.3641 11.8547 10.1672C11.8547 8.80781 12.9609 7.70156 14.3203 7.70156C15.0281 7.70156 15.6703 8.00156 16.1203 8.47969C16.6828 8.36719 17.2078 8.16563 17.6859 7.87969C17.5031 8.45625 17.1094 8.93906 16.6031 9.24375C17.1 9.18281 17.5781 9.05156 18.0187 8.85469C17.6906 9.35156 17.2734 9.78281 16.7906 10.1344Z" fill="white" fill-opacity="0.7"/>
</svg>
